HIERARCHY
ROOT joint_Root
{
	OFFSET 0.0 0.0 0.0
	CHANNELS 6 Xposition Yposition Zposition Zrotation Xrotation Yrotation 
	JOINT Hips
	{
		OFFSET -0.726466 93.3139 -2.00062
		CHANNELS 6 Xposition Yposition Zposition Zrotation Xrotation Yrotation 
		JOINT Spine
		{
			OFFSET 15.7357 0.0 0.0
			CHANNELS 6 Xposition Yposition Zposition Zrotation Xrotation Yrotation 
			JOINT Chest
			{
				OFFSET 8.98455 -0.406207 0.0
				CHANNELS 6 Xposition Yposition Zposition Zrotation Xrotation Yrotation 
				JOINT Neck
				{
					OFFSET 16.3773 0.0 0.0
					CHANNELS 6 Xposition Yposition Zposition Zrotation Xrotation Yrotation 
					JOINT Head
					{
						OFFSET 6.45672 0.0 0.0
						CHANNELS 6 Xposition Yposition Zposition Zrotation Xrotation Yrotation 
						End Site
						{
							OFFSET 0.0 0.0 0.0
						}
					}
				}
				JOINT Shoulder_L
				{
					OFFSET 12.9942 -0.242716 4.98039
					CHANNELS 6 Xposition Yposition Zposition Zrotation Xrotation Yrotation 
					JOINT UpperArm_L
					{
						OFFSET 5.34809 0.0 0.0
						CHANNELS 6 Xposition Yposition Zposition Zrotation Xrotation Yrotation 
						JOINT LowerArm_L
						{
							OFFSET 24.3286 1.87007e-05 0.0
							CHANNELS 6 Xposition Yposition Zposition Zrotation Xrotation Yrotation 
							JOINT Hand_L
							{
								OFFSET 22.2916 0.0 0.0
								CHANNELS 6 Xposition Yposition Zposition Zrotation Xrotation Yrotation 
								End Site
								{
									OFFSET 0.0 0.0 0.0
								}
							}
						}
					}
				}
				JOINT Shoulder_R
				{
					OFFSET 12.9945 -0.242716 -4.98039
					CHANNELS 6 Xposition Yposition Zposition Zrotation Xrotation Yrotation 
					JOINT UpperArm_R
					{
						OFFSET -5.34813 0.0 0.0
						CHANNELS 6 Xposition Yposition Zposition Zrotation Xrotation Yrotation 
						JOINT LowerArm_R
						{
							OFFSET -24.3289 0.000322201 0.0
							CHANNELS 6 Xposition Yposition Zposition Zrotation Xrotation Yrotation 
							JOINT Hand_R
							{
								OFFSET -22.2915 -0.000108084 0.0
								CHANNELS 6 Xposition Yposition Zposition Zrotation Xrotation Yrotation 
								End Site
								{
									OFFSET 0.0 0.0 0.0
								}
							}
						}
					}
				}
			}
		}
		JOINT UpperLeg_L
		{
			OFFSET -2.19248 -6.46944 0.0
			CHANNELS 6 Xposition Yposition Zposition Zrotation Xrotation Yrotation 
			JOINT LowerLeg_L
			{
				OFFSET 39.0811 0.0 -1.23785e-05
				CHANNELS 6 Xposition Yposition Zposition Zrotation Xrotation Yrotation 
				JOINT Foot_L
				{
					OFFSET 40.9854 0.0 -1.26872e-05
					CHANNELS 6 Xposition Yposition Zposition Zrotation Xrotation Yrotation 
					JOINT Toes_L
					{
						OFFSET 11.7543 0.0 0.0
						CHANNELS 6 Xposition Yposition Zposition Zrotation Xrotation Yrotation 
						End Site
						{
							OFFSET 0.0 0.0 0.0
						}
					}
				}
			}
		}
		JOINT UpperLeg_R
		{
			OFFSET -2.19251 6.46944 0.0
			CHANNELS 6 Xposition Yposition Zposition Zrotation Xrotation Yrotation 
			JOINT LowerLeg_R
			{
				OFFSET -39.0811 -0.00228153 -0.0401928
				CHANNELS 6 Xposition Yposition Zposition Zrotation Xrotation Yrotation 
				JOINT Foot_R
				{
					OFFSET -40.9854 0.0 0.0
					CHANNELS 6 Xposition Yposition Zposition Zrotation Xrotation Yrotation 
					JOINT Toes_R
					{
						OFFSET -11.7543 0.0 0.0
						CHANNELS 6 Xposition Yposition Zposition Zrotation Xrotation Yrotation 
						End Site
						{
							OFFSET 0.0 0.0 0.0
						}
					}
				}
			}
		}
	}
}
MOTION
Frames:	9
Frame Time:	0.0333333
0.000000 0.000000 0.000000 0.000000 0.000000 -0.000000 -4.395470 82.499100 448.611000 -82.607900 3.453140 173.584000 15.735700 0.000005 -0.000001 92.315600 80.571300 -88.342700 8.984550 -0.406207 -0.000000 11.058900 0.870600 7.857790 16.377300 -0.000001 -0.000001 -2.773830 1.463850 -1.656290 6.456720 -0.000001 -0.000000 -3.128120 2.326640 -5.410160 12.994200 -0.242716 4.980390 -90.029200 0.077149 -69.268500 5.348090 -0.000007 -0.000001 -63.407400 35.136300 -7.216370 24.328600 0.000019 0.000005 7.018410 1.099000 -81.173900 22.291600 -0.000001 0.000005 3.137410 5.650990 -15.114000 12.994500 -0.242716 -4.980390 88.113200 5.769260 -71.855400 -5.348130 -0.000001 -0.000004 -53.654500 27.087700 -14.679500 -24.328900 0.000322 -0.000009 -1.123660 -0.028069 -88.585900 -22.291500 -0.000108 -0.000004 17.344700 5.563380 -9.355040 -2.192480 -6.469440 -0.000000 -173.620000 0.403439 -24.274800 39.081100 -0.000007 -0.000012 -0.391122 -0.101882 104.602000 40.985400 -0.000006 -0.000013 4.068490 -4.475490 -43.850600 11.754300 -0.000000 0.000003 -0.008202 -0.089680 -20.228800 -2.192510 6.469440 -0.000001 -168.955000 7.122530 157.864000 -39.081100 -0.002282 -0.040193 0.131501 -0.089215 55.181500 -40.985400 0.000008 0.000006 6.416850 -3.508220 -88.856600 -11.754300 -0.000006 -0.000006 -0.003692 -0.048198 -18.533500
0.000000 0.000000 0.000000 0.000000 0.000000 -0.000000 -4.419920 82.069000 442.768000 -85.075900 4.231860 172.240000 15.735700 0.000005 -0.000001 98.874700 81.145000 -95.599300 8.984550 -0.406207 -0.000000 9.669060 2.770390 6.312200 16.377300 -0.000001 -0.000001 -2.676230 0.668035 -0.967731 6.456720 -0.000001 -0.000000 -2.835160 1.059200 -6.653390 12.994200 -0.242716 4.980390 -89.901000 -0.256130 -68.895800 5.348090 -0.000007 -0.000001 -64.247400 35.346200 1.013770 24.328600 0.000019 0.000005 12.120400 1.854750 -81.432900 22.291600 -0.000001 0.000005 1.588420 5.652640 -15.265100 12.994500 -0.242716 -4.980390 88.424900 4.862390 -72.027100 -5.348130 -0.000001 -0.000004 -52.331500 24.448900 -25.045900 -24.328900 0.000322 -0.000009 0.051827 -0.003641 -93.583500 -22.291500 -0.000108 -0.000004 15.918800 5.577830 -10.095400 -2.192480 -6.469440 -0.000000 -177.818000 -0.264857 -35.634700 39.081100 -0.000007 -0.000012 -0.518494 -0.199092 111.006000 40.985400 -0.000006 -0.000013 8.501230 -7.115560 -47.772800 11.754300 -0.000000 0.000003 -0.009569 -0.100398 -20.666900 -2.192510 6.469440 -0.000001 -172.923000 9.634900 161.838000 -39.081100 -0.002282 -0.040193 0.080692 -0.057096 53.605600 -40.985400 0.000008 0.000006 6.367100 -0.115935 -91.898100 -11.754300 -0.000006 -0.000006 -0.004361 -0.055141 -18.816300
0.000000 0.000000 0.000000 0.000000 0.000000 -0.000000 -4.538040 83.439800 436.028000 -88.110900 6.239870 170.643000 15.735700 0.000005 -0.000001 107.579000 81.761500 -105.816000 8.984550 -0.406207 -0.000000 7.889650 4.957310 3.181910 16.377300 -0.000001 -0.000001 -2.219970 0.465856 -0.036940 6.456720 -0.000001 -0.000000 -2.142340 -1.185220 -5.136500 12.994200 -0.242716 4.980390 -89.249600 -1.807970 -67.463000 5.348090 -0.000007 -0.000001 -64.034500 37.968700 8.177320 24.328600 0.000019 0.000005 6.427640 0.508472 -85.516400 22.291600 -0.000001 0.000005 0.960917 5.644560 -14.517700 12.994500 -0.242716 -4.980390 88.803500 3.787610 -72.454800 -5.348130 -0.000001 -0.000004 -52.940600 23.739200 -31.249400 -24.328900 0.000322 -0.000009 0.312502 -0.055512 -100.269000 -22.291500 -0.000108 -0.000004 16.477800 5.584200 -10.437400 -2.192480 -6.469440 -0.000000 177.559000 -0.562822 -43.283500 39.081100 -0.000007 -0.000012 -0.436942 -0.143972 108.238000 40.985400 -0.000006 -0.000013 8.879160 -7.552990 -53.316300 11.754300 -0.000000 0.000003 -0.006222 -0.072850 -19.541900 -2.192510 6.469440 -0.000001 -177.787000 8.762890 168.243000 -39.081100 -0.002282 -0.040193 0.050784 -0.045865 46.017300 -40.985400 0.000008 0.000006 5.864940 2.267810 -88.554500 -11.754300 -0.000006 -0.000006 -0.537286 -0.662640 -22.067000
0.000000 0.000000 0.000000 0.000000 0.000000 -0.000000 -4.730850 86.108700 428.574000 -90.743400 7.611900 170.016000 15.735700 0.000005 -0.000001 113.879000 81.905400 -113.541000 8.984550 -0.406207 -0.000000 7.053120 6.528570 0.271631 16.377300 -0.000001 -0.000001 -1.912000 0.212442 0.274125 6.456720 -0.000001 -0.000000 -1.530410 -3.446130 -2.858120 12.994200 -0.242716 4.980390 -88.423700 -3.623220 -66.472700 5.348090 -0.000007 -0.000001 -65.643800 38.537300 14.752800 24.328600 0.000019 0.000005 3.963150 0.015783 -89.779500 22.291600 -0.000001 0.000005 0.075562 5.632990 -13.554600 12.994500 -0.242716 -4.980390 89.198100 2.548620 -72.528300 -5.348130 -0.000001 -0.000004 -53.775700 25.203100 -35.201200 -24.328900 0.000322 -0.000009 -1.042000 0.291803 -105.621000 -22.291500 -0.000108 -0.000004 16.962200 5.587770 -10.636900 -2.192480 -6.469440 -0.000000 174.070000 0.472610 -46.031800 39.081100 -0.000007 -0.000012 -0.280673 -0.039664 98.045800 40.985400 -0.000006 -0.000013 6.563100 -8.163450 -57.749500 11.754300 -0.000000 0.000003 -0.006522 -0.075516 -19.650600 -2.192510 6.469440 -0.000001 178.003000 7.212610 175.316000 -39.081100 -0.002282 -0.040193 0.029289 -0.034518 36.991200 -40.985400 0.000008 0.000006 5.502950 3.836070 -76.054300 -11.754300 -0.000006 -0.000006 -0.065944 -0.350623 -31.075700
0.000000 0.000000 0.000000 0.000000 0.000000 -0.000000 -4.882330 89.282300 421.211000 -92.210500 8.177430 168.645000 15.735700 0.000005 -0.000001 118.498000 82.227800 -119.077000 8.984550 -0.406207 -0.000000 5.971410 7.406260 -1.544790 16.377300 -0.000001 -0.000001 -1.728970 -0.136185 0.032001 6.456720 -0.000001 -0.000000 -1.408760 -5.030350 -1.585320 12.994200 -0.242716 4.980390 -87.767900 -4.922790 -65.574000 5.348090 -0.000007 -0.000001 -67.576800 38.362300 19.562500 24.328600 0.000019 0.000005 2.925440 -0.165205 -93.243500 22.291600 -0.000001 0.000005 0.325911 5.622250 -12.779400 12.994500 -0.242716 -4.980390 89.604800 1.225630 -72.127100 -5.348130 -0.000001 -0.000004 -54.149500 28.130300 -37.942400 -24.328900 0.000322 -0.000009 -0.516106 0.178697 -109.102000 -22.291500 -0.000108 -0.000004 15.419300 5.577700 -10.088300 -2.192480 -6.469440 -0.000000 172.226000 1.459210 -46.482100 39.081100 -0.000007 -0.000012 -0.142060 0.018968 82.398000 40.985400 -0.000006 -0.000013 6.297930 -9.466400 -60.915000 11.754300 -0.000000 0.000003 -0.006545 -0.075714 -19.658700 -2.192510 6.469440 -0.000001 174.648000 9.737280 179.412000 -39.081100 -0.002282 -0.040193 0.029978 -0.046411 29.889400 -40.985400 0.000008 0.000006 5.003350 8.273640 -58.281700 -11.754300 -0.000006 -0.000006 -0.199731 -0.644657 -44.201100
0.000000 0.000000 0.000000 0.000000 0.000000 -0.000000 -4.788910 92.028200 413.865000 -91.326600 7.843580 168.561000 15.735700 0.000005 -0.000001 119.305000 82.112900 -119.929000 8.984550 -0.406207 -0.000000 6.074710 7.709170 -1.658160 16.377300 -0.000001 -0.000001 -1.693080 -0.064004 -0.313385 6.456720 -0.000001 -0.000000 -1.745830 -6.072770 -1.089260 12.994200 -0.242716 4.980390 -87.170900 -6.014430 -64.750000 5.348090 -0.000007 -0.000001 -69.416400 37.355300 21.952300 24.328600 0.000019 0.000005 1.004070 -0.100050 -95.715000 22.291600 -0.000001 0.000005 0.996074 5.616320 -12.374400 12.994500 -0.242716 -4.980390 89.989600 0.032044 -72.079100 -5.348130 -0.000001 -0.000004 -54.372400 31.369000 -40.021700 -24.328900 0.000322 -0.000009 0.247651 -0.092610 -110.508000 -22.291500 -0.000108 -0.000004 13.238900 5.565520 -9.452410 -2.192480 -6.469440 -0.000000 173.342000 1.590170 -42.699200 39.081100 -0.000007 -0.000012 -0.036928 0.018927 62.869200 40.985400 -0.000006 -0.000013 5.788580 -8.507740 -63.836300 11.754300 -0.000000 0.000003 -0.006099 -0.071740 -19.496600 -2.192510 6.469440 -0.000001 172.758000 14.158600 -176.414000 -39.081100 -0.002282 -0.040193 0.047002 -0.096079 24.452100 -40.985400 0.000008 0.000006 0.919748 14.920200 -39.895500 -11.754300 -0.000006 -0.000006 -0.171973 -0.596384 -41.943300
0.000000 0.000000 0.000000 0.000000 0.000000 -0.000000 -4.229050 93.348900 406.470000 -89.438600 7.180780 169.002000 15.735700 0.000005 -0.000001 119.557000 81.916000 -119.842000 8.984550 -0.406207 -0.000000 6.365120 7.955860 -1.012760 16.377300 -0.000001 -0.000001 -1.594100 -0.175013 -0.749849 6.456720 -0.000001 -0.000000 -1.836250 -6.620240 -0.994190 12.994200 -0.242716 4.980390 -86.688700 -6.968840 -64.505500 5.348090 -0.000007 -0.000001 -70.586000 36.236500 22.670400 24.328600 0.000019 0.000005 -0.179939 0.025365 -97.950400 22.291600 -0.000001 0.000005 1.786580 5.613870 -12.211200 12.994500 -0.242716 -4.980390 90.397600 -1.234690 -72.148000 -5.348130 -0.000001 -0.000004 -54.916200 34.611200 -40.894200 -24.328900 0.000322 -0.000009 -0.563734 0.207902 -110.242000 -22.291500 -0.000108 -0.000004 12.033300 5.555350 -8.961130 -2.192480 -6.469440 -0.000000 175.924000 1.125020 -36.534600 39.081100 -0.000007 -0.000012 -0.001386 0.001569 41.506500 40.985400 -0.000006 -0.000013 3.122000 -4.034080 -65.934600 11.754300 -0.000000 0.000003 -0.005408 -0.065370 -19.236800 -2.192510 6.469440 -0.000001 173.593000 12.580300 -173.450000 -39.081100 -0.002282 -0.040193 0.059868 -0.132653 23.089600 -40.985400 0.000008 0.000006 -5.264190 12.284500 -28.283500 -11.754300 -0.000006 -0.000006 -0.031521 -0.224352 -25.768000
0.000000 0.000000 0.000000 0.000000 0.000000 -0.000000 -3.462870 93.082000 398.840000 -87.362800 7.381450 169.299000 15.735700 0.000005 -0.000001 121.303000 81.783700 -121.324000 8.984550 -0.406207 -0.000000 6.330070 8.513390 -0.514368 16.377300 -0.000001 -0.000001 -1.578270 -0.345730 -0.779878 6.456720 -0.000001 -0.000000 -1.531280 -6.789830 -0.972175 12.994200 -0.242716 4.980390 -86.313200 -7.713460 -64.355400 5.348090 -0.000007 -0.000001 -70.636100 35.240000 21.786700 24.328600 0.000019 0.000005 -0.306178 0.053887 -99.978700 22.291600 -0.000001 0.000005 2.146380 5.607250 -11.785200 12.994500 -0.242716 -4.980390 90.831000 -2.631520 -72.466800 -5.348130 -0.000001 -0.000004 -56.442300 37.709700 -40.077300 -24.328900 0.000322 -0.000009 -1.648330 0.547439 -108.374000 -22.291500 -0.000108 -0.000004 12.214600 5.556670 -9.026180 -2.192480 -6.469440 -0.000000 178.283000 -0.193983 -31.005800 39.081100 -0.000007 -0.000012 -0.002989 0.006678 24.111700 40.985400 -0.000006 -0.000013 0.188754 -1.391640 -66.298800 11.754300 -0.000000 0.000003 -0.005402 -0.065313 -19.234500 -2.192510 6.469440 -0.000001 176.670000 6.255760 -172.853000 -39.081100 -0.002282 -0.040193 0.042547 -0.071389 28.797700 -40.985400 0.000008 0.000006 -5.146720 7.177780 -29.124100 -11.754300 -0.000006 -0.000006 -0.029234 -0.213931 -25.335500
0.000000 0.000000 0.000000 0.000000 0.000000 -0.000000 -2.953250 91.754100 391.065000 -86.219300 7.568900 169.553000 15.735700 0.000005 -0.000001 120.521000 81.779000 -120.535000 8.984550 -0.406207 -0.000000 6.451140 8.325390 -0.497713 16.377300 -0.000001 -0.000001 -1.497190 -0.409058 -0.541460 6.456720 -0.000001 -0.000000 -2.061090 -6.474870 -0.923996 12.994200 -0.242716 4.980390 -86.345100 -7.618630 -64.275000 5.348090 -0.000007 -0.000001 -69.765100 33.587400 19.287800 24.328600 0.000019 0.000005 0.160983 -0.031727 -101.143000 22.291600 -0.000001 0.000005 1.856130 5.601480 -11.429500 12.994500 -0.242716 -4.980390 91.076000 -3.451440 -72.673100 -5.348130 -0.000001 -0.000004 -58.234400 40.178500 -38.128800 -24.328900 0.000322 -0.000009 -2.437980 0.650172 -104.936000 -22.291500 -0.000108 -0.000004 12.373500 5.547560 -8.589800 -2.192480 -6.469440 -0.000000 177.437000 -2.376340 -31.757700 39.081100 -0.000007 -0.000012 0.233552 -0.531866 23.707500 40.985400 -0.000006 -0.000013 5.788700 -3.858030 -66.963000 11.754300 -0.000000 0.000003 -0.005772 -0.068761 -19.375100 -2.192510 6.469440 -0.000001 179.629000 -0.136254 -174.107000 -39.081100 -0.002282 -0.040193 -0.006624 0.012245 38.972000 -40.985400 0.000008 0.000006 -3.728030 4.174250 -33.449600 -11.754300 -0.000006 -0.000006 -0.027220 -0.204425 -24.941600
